<?xml version="1.0" encoding="utf-8"?>
<!-- Generator: Adobe Illustrator 16.0.0, SVG Export Plug-In . SVG Version: 6.00 Build 0)  -->
<!DOCTYPE svg PUBLIC "-//W3C//DTD SVG 1.1//EN" "http://www.w3.org/Graphics/SVG/1.1/DTD/svg11.dtd">
<svg version="1.1" id="Layer_1" xmlns="http://www.w3.org/2000/svg" xmlns:xlink="http://www.w3.org/1999/xlink" x="0px" y="0px"
	 width="150px" height="150px" viewBox="0 0 150 150" enable-background="new 0 0 150 150" xml:space="preserve">
<rect fill="#242424" width="150" height="150"/>
<g>
	<path fill="#FFFFFF" d="M144.041,59.818c-1.684-4.461-4.222-8.126-7.615-10.994c-2.604-2.223-5.749-3.907-9.436-4.755
		C124.356,43.454,120.538,43,115.535,43h-13.645h-8.114h-0.444L83.238,84.203c-1.317,5.266-2.386,9.863-3.204,13.93
		c-1.024-7.11-2.692-14.597-5.003-22.672L65.814,43h-10.27L43.3,86.309c-0.293,1.053-1.258,4.948-2.897,11.823
		c-0.761-4.36-1.667-8.643-2.72-13.061L27.895,43h-0.357h-8.225l11.762,45h0.013l0.756,2.949L36.303,108h8.621l13.648-49.494
		c0.586-2.077,1.214-4.828,1.888-7.784c0.204,0.937,0.878,3.805,2.02,7.902L76.04,108h8.207l15.248-57h15.909
		c5.061,0,8.733,0.382,11.015,1.26c3.16,1.229,5.845,3.622,8.054,7.235c2.21,3.614,3.314,8.771,3.314,15.501
		c0,4.857-0.564,8.983-1.69,12.391c-1.127,3.409-2.699,6.119-4.719,8.139c-1.433,1.433-3.356,3.023-5.77,3.813
		c-2.415,0.79-5.743,1.662-9.985,1.662h-14.356H94v7h22.589c3.891,0,7.336-0.549,10.335-1.28c2.999-0.73,5.56-1.897,7.681-3.317
		c2.121-1.419,4.074-3.41,5.858-5.883c1.785-2.472,3.248-5.619,4.39-9.393c1.142-3.774,1.712-8.116,1.712-13.003
		C146.564,69.391,145.723,64.28,144.041,59.818z"/>
	<polygon fill="#FFFFFF" points="17.084,82 20.082,70.606 16.036,55.001 8.885,84.605 3.029,108 9.895,108 15.372,88 24.623,88 
		22.989,82 	"/>
</g>
</svg>
