<?xml version="1.0" encoding="utf-8"?>
<!-- Generator: Adobe Illustrator 16.0.0, SVG Export Plug-In . SVG Version: 6.00 Build 0)  -->
<!DOCTYPE svg PUBLIC "-//W3C//DTD SVG 1.1//EN" "http://www.w3.org/Graphics/SVG/1.1/DTD/svg11.dtd">
<svg version="1.1" id="Layer_1" xmlns="http://www.w3.org/2000/svg" xmlns:xlink="http://www.w3.org/1999/xlink" x="0px" y="0px"
	 width="229.406px" height="410.001px" viewBox="141.297 51 229.406 410.001" enable-background="new 141.297 51 229.406 410.001"
	 xml:space="preserve">
<g id="logo-bg-dark">
	<g id="test-tube">
		<path fill="#F05F40" d="M321.935,60.694c-27.948-10.748-53.133-12.884-56.253-4.771c-0.054,0.138-0.083,0.281-0.122,0.423
			l-0.037,0.132c-0.186,0.736-0.19,1.528-0.033,2.364c0,0,2.508,16.643-0.34,24.049L144.144,397.522l0.011,0.004
			c-8.635,23.11,2.937,48.911,26.014,57.787c23.075,8.875,48.955-2.524,58.03-25.464l0.011,0.005L349.215,115.22
			c2.365-6.155,15.86-18.079,15.86-18.079c0.677-0.517,1.202-1.107,1.56-1.778l0.059-0.122c0.064-0.131,0.141-0.258,0.193-0.395
			C370.006,86.733,349.881,71.442,321.935,60.694z M216.218,425.711l0.058,0.021c-6.437,16.262-25.166,24.723-41.781,18.333
			s-25.607-25.512-19.488-41.896l55.759-144.982c0,0,6.964-11.233,20.637-19.226c13.673-7.99,24.949-6.305,40.132-13.053
			c15.182-6.748,31.947-26.093,31.947-26.093L216.218,425.711z M347.39,88.295c-1.755,4.563-17.238,2.853-34.584-3.818
			c-17.346-6.672-29.985-15.778-28.23-20.341c1.755-4.562,17.238-2.853,34.584,3.819C336.506,74.626,349.145,83.733,347.39,88.295z"
			/>
		<g id="bubbles">
			<circle fill="#F05F40" enable-background="new    " cx="226.531" cy="261.806" r="3.506"/>
			<circle fill="#F05F40" enable-background="new    " cx="249.514" cy="287.227" r="5.285"/>
			<circle fill="#F05F40" enable-background="new    " cx="214.429" cy="317.46" r="9.915"/>
			<circle fill="#F05F40" enable-background="new    " cx="198.375" cy="335.795" r="5.286"/>
			<circle fill="#F05F40" enable-background="new    " cx="219.43" cy="375.009" r="3.506"/>
		</g>
	</g>
</g>
<g id="logo-bg-light" display="none">
	<g id="test-tube_1_" display="inline">
		<path id="shadow_1_" opacity="0.1" enable-background="new    " d="M269.02,59.151c-0.185,0.737-0.188,1.529-0.033,2.365
			c0,0,2.507,16.642-0.339,24.048L147.643,400.197l0.009,0.004c-8.636,23.11,2.937,48.911,26.014,57.787
			c23.077,8.875,48.955-2.523,58.03-25.464l0.011,0.005l121.005-314.634c2.366-6.155,15.86-18.079,15.86-18.079
			c0.677-0.517,1.202-1.108,1.56-1.778l0.06-0.122c0.064-0.132,0.141-0.258,0.192-0.395c3.12-8.113-17.005-23.405-44.951-34.152
			c-27.948-10.748-53.134-12.884-56.253-4.771c-0.054,0.137-0.083,0.28-0.122,0.422L269.02,59.151z"/>
		
			<linearGradient id="tube_2_" gradientUnits="userSpaceOnUse" x1="175.3083" y1="233.2156" x2="251.9797" y2="156.5442" gradientTransform="matrix(0.9138 -0.4062 -0.4062 -0.9138 129.9905 522.8702)">
			<stop  offset="0" style="stop-color:#919191"/>
			<stop  offset="1" style="stop-color:#FFFFFF"/>
		</linearGradient>
		<path id="tube_1_" fill="url(#tube_2_)" d="M265.523,56.477c-0.186,0.736-0.19,1.528-0.033,2.364c0,0,2.508,16.643-0.34,24.049
			L144.144,397.522l0.011,0.004c-8.635,23.11,2.937,48.911,26.014,57.787c23.075,8.875,48.955-2.524,58.03-25.464l0.011,0.005
			L349.215,115.22c2.365-6.155,15.86-18.079,15.86-18.079c0.677-0.517,1.202-1.107,1.56-1.778l0.059-0.122
			c0.064-0.131,0.141-0.258,0.193-0.395c3.119-8.113-17.006-23.404-44.951-34.152c-27.948-10.748-53.133-12.884-56.253-4.771
			c-0.054,0.138-0.083,0.281-0.122,0.423L265.523,56.477z"/>
		
			<linearGradient id="liquid_2_" gradientUnits="userSpaceOnUse" x1="146.4783" y1="174.7258" x2="192.8946" y2="128.3095" gradientTransform="matrix(0.9138 -0.4062 -0.4062 -0.9138 129.9905 522.8702)">
			<stop  offset="0" style="stop-color:#990000"/>
			<stop  offset="1" style="stop-color:#E80000"/>
		</linearGradient>
		<path id="liquid_1_" fill="url(#liquid_2_)" d="M303.48,198.814l-87.263,226.896l0.058,0.021
			c-6.437,16.262-25.166,24.723-41.781,18.333s-25.607-25.512-19.488-41.896l0,0l55.759-144.982c0,0,6.964-11.233,20.637-19.226
			c13.673-7.99,24.949-6.305,40.132-13.053C286.715,218.159,303.48,198.814,303.48,198.814z"/>
		
			<ellipse id="top_1_" transform="matrix(0.3589 -0.9334 0.9334 0.3589 131.4291 343.786)" fill="#333333" cx="315.983" cy="76.216" rx="8.851" ry="33.65"/>
		<path id="side-reflection_1_" opacity="0.3" fill="#FFFFFF" enable-background="new    " d="M265.489,58.841
			c0,0,2.471,16.737-0.34,24.049L144.144,397.522l0.011,0.004c-8.635,23.11,2.937,48.911,26.014,57.787
			c4.005,1.54,8.093,2.455,12.164,2.822c-15.556-11.702-22.229-32.632-15.093-51.73l-0.011-0.004L285.833,98.009
			C285.833,98.009,269.689,82.85,265.489,58.841z"/>
		<g id="bubbles_1_">
			<circle opacity="0.5" fill="#FFFFFF" enable-background="new    " cx="226.531" cy="261.806" r="3.506"/>
			<circle opacity="0.5" fill="#FFFFFF" enable-background="new    " cx="249.514" cy="287.227" r="5.285"/>
			<circle opacity="0.5" fill="#FFFFFF" enable-background="new    " cx="214.429" cy="317.46" r="9.915"/>
			<circle opacity="0.5" fill="#FFFFFF" enable-background="new    " cx="198.375" cy="335.795" r="5.286"/>
			<circle opacity="0.5" fill="#FFFFFF" enable-background="new    " cx="219.43" cy="375.009" r="3.506"/>
		</g>
	</g>
</g>
</svg>
