<?xml version="1.0" encoding="utf-8"?>
<!-- Generator: Adobe Illustrator 22.0.0, SVG Export Plug-In . SVG Version: 6.00 Build 0)  -->
<svg version="1.1" id="Capa_1" xmlns="http://www.w3.org/2000/svg" xmlns:xlink="http://www.w3.org/1999/xlink" x="0px" y="0px"
	 viewBox="0 0 82 85.6" style="enable-background:new 0 0 82 85.6;" xml:space="preserve">
<style type="text/css">
	.st0{fill:#F05F40;}
</style>
<g>
	<path class="st0" d="M41,4.2c7.2,0,13.8,1.8,19.9,5.4S71.8,18,75.4,24.1s5.4,12.7,5.4,19.9s-1.8,13.8-5.4,19.9s-8.4,10.9-14.5,14.5
		S48.2,83.7,41,83.7c-7.2,0-13.8-1.8-19.9-5.4S10.2,69.9,6.6,63.8S1.3,51.1,1.3,44s1.8-13.8,5.4-19.9s8.4-10.9,14.5-14.5
		S33.8,4.2,41,4.2z M5.3,44c0,6.9,1.8,13.3,5.5,19.1s8.6,10.1,14.7,13.1L8.3,29.4C6.3,34,5.3,38.8,5.3,44z M46,27.1l12.8,38.4
		l3.8-12.7c0.9-2.9,1.4-4.9,1.8-6.1c0.5-1.8,0.8-3.4,0.8-4.6c0-2-0.3-4-1-5.8c-0.4-1.2-1.1-2.6-2.1-4.2l-0.5-0.6
		c-1-1.7-1.7-3-2.1-3.8c-0.6-1.4-1-2.7-1-3.8c0-1.7,0.6-3.2,1.8-4.5s2.6-1.9,4.3-1.9l0.5,0.2c-3.3-3-7-5.3-11.1-7S45.6,8.3,41,8.3
		c-6.1,0-11.8,1.4-17.1,4.3s-9.5,6.8-12.7,11.7l2.2,0.2c1.6,0,3.7-0.1,6.2-0.3l3.2-0.2c0.6,0,1.1,0.2,1.4,0.6s0.3,0.9,0.2,1.4
		s-0.6,0.8-1.2,0.8l-4.2,0.3l13.1,38.8l7.7-23.4l-5.4-15.2l-3.8-0.5c-0.5,0-0.9-0.2-1.1-0.7s-0.2-1,0.1-1.4s0.7-0.7,1.4-0.7l3.4,0.2
		c2.6,0.2,4.6,0.3,6.1,0.3s3.5-0.1,6.1-0.3l3.4-0.2c0.5,0,1,0.2,1.3,0.6s0.4,0.9,0.2,1.4s-0.6,0.8-1.3,0.8
		C48.6,26.9,47.2,27,46,27.1z M41,79.7c4.1,0,8-0.7,11.9-2.1l-0.3-0.5L41.6,47L30.9,78.2C34.2,79.2,37.6,79.7,41,79.7z M58.9,74.9
		c5.4-3.2,9.8-7.5,13-13s4.8-11.4,4.8-17.9c0-6.1-1.4-11.8-4.3-17.1c0.1,1.2,0.2,2.4,0.2,3.7c0,4-0.9,8.2-2.7,12.8L58.9,74.9z"/>
</g>
</svg>
